<svg xmlns="http://www.w3.org/2000/svg" width="16" height="16" viewBox="0 0 16 16">
  <g fill="none">
    <rect width="16" height="16" fill="#000" opacity="0"/>
    <path fill="#0D0F27" d="M13.3333333,7.55555556 L8.44444444,7.55555556 L8.44444444,2.66666667 C8.44444444,2.41777778 8.24888888,2.22222222 8,2.22222222 C7.75111112,2.22222222 7.55555556,2.41777778 7.55555556,2.66666667 L7.55555556,7.55555556 L2.66666667,7.55555556 C2.41777778,7.55555556 2.22222222,7.75111113 2.22222222,8 C2.22222222,8.24888887 2.41777778,8.44444444 2.66666667,8.44444444 L7.55555556,8.44444444 L7.55555556,13.3333333 C7.55555556,13.5822222 7.75111113,13.7777778 8,13.7777778 C8.24888887,13.7777778 8.44444444,13.5822222 8.44444444,13.3333333 L8.44444444,8.44444444 L13.3333333,8.44444444 C13.5822222,8.44444444 13.7777778,8.24888888 13.7777778,8 C13.7777778,7.75111112 13.5822222,7.55555556 13.3333333,7.55555556 Z"/>
  </g>
</svg>
