<svg xmlns="http://www.w3.org/2000/svg" width="16" height="16" viewBox="0 0 16 16">
  <g fill="none">
    <rect width="16" height="16" fill="#000" opacity="0"/>
    <path fill="#FFF" d="M8,3 C4.5,3 1.35,6.575 1,8.5 C1.35,10.425 4.5,14 8,14 C11.5,14 14.65,10.425 15,8.5 C14.65,6.575 11.5,3 8,3 Z M8,13.0833333 C5.375,13.0833333 2.3125,10.0583333 1.875,8.5 C2.3125,6.94166667 5.375,3.91666667 8,3.91666667 C10.625,3.91666667 13.6875,6.94166667 14.125,8.5 C13.6875,10.0583333 10.625,13.0833333 8,13.0833333 Z M8,5.75 C6.5125,5.75 5.375,6.94166667 5.375,8.5 C5.375,10.0583333 6.5125,11.25 8,11.25 C9.4875,11.25 10.625,10.0583333 10.625,8.5 C10.625,6.94166667 9.4875,5.75 8,5.75 Z M8,10.3333333 C7.0375,10.3333333 6.25,9.50833333 6.25,8.5 C6.25,7.49166667 7.0375,6.66666667 8,6.66666667 C8.9625,6.66666667 9.75,7.49166667 9.75,8.5 C9.75,9.50833333 8.9625,10.3333333 8,10.3333333 Z"/>
  </g>
</svg>
